<svg width="16" height="18" viewBox="0 0 16 18" fill="none" xmlns="http://www.w3.org/2000/svg">
<path d="M0.490006 8.99994C0.623358 9.14039 0.806459 9.22296 1.00001 9.22994C1.20748 9.23378 1.40703 9.15033 1.55001 8.99994L7.25 3.29994V16.52C7.25539 16.932 7.58804 17.2646 8 17.27C8.41196 17.2646 8.74461 16.932 8.75 16.52V3.29993L14.45 8.99994C14.6411 9.19643 14.9226 9.27603 15.1883 9.20875C15.4541 9.14147 15.6637 8.93753 15.7383 8.67375C15.8129 8.40997 15.7411 8.12643 15.55 7.92994L8.55001 0.929936C8.2529 0.648029 7.78711 0.648029 7.49001 0.929936L0.490006 7.92994C0.346475 8.07095 0.265625 8.26372 0.265625 8.46494C0.265625 8.66615 0.346475 8.85892 0.490006 8.99994Z" fill="rgb(239.7, 0, 103.4)"/>
</svg>
